<mxfile host="app.diagrams.net" modified="2024-01-18T07:30:33.394Z" agent="Mozilla/5.0 (Windows NT 10.0; Win64; x64) AppleWebKit/537.36 (KHTML, like Gecko) Chrome/120.0.0.0 Safari/537.36" etag="xMrlj-Zf0Qjr54htKZmz" version="22.1.21" type="github">
  <diagram name="Page-1" id="yAfbLkgvd0ye9uTe8iZY">
    <mxGraphModel dx="733" dy="383" grid="1" gridSize="10" guides="1" tooltips="1" connect="1" arrows="1" fold="1" page="1" pageScale="1" pageWidth="850" pageHeight="1100" math="0" shadow="0">
      <root>
        <mxCell id="0" />
        <mxCell id="1" parent="0" />
        <mxCell id="BLV9zEJ2628pvFy6-XPy-5" value="" style="edgeStyle=orthogonalEdgeStyle;rounded=0;orthogonalLoop=1;jettySize=auto;html=1;" edge="1" parent="1" source="BLV9zEJ2628pvFy6-XPy-2" target="BLV9zEJ2628pvFy6-XPy-4">
          <mxGeometry relative="1" as="geometry" />
        </mxCell>
        <mxCell id="BLV9zEJ2628pvFy6-XPy-2" value="START" style="strokeWidth=2;html=1;shape=mxgraph.flowchart.start_1;whiteSpace=wrap;" vertex="1" parent="1">
          <mxGeometry x="325" y="20" width="100" height="60" as="geometry" />
        </mxCell>
        <mxCell id="BLV9zEJ2628pvFy6-XPy-7" value="" style="edgeStyle=orthogonalEdgeStyle;rounded=0;orthogonalLoop=1;jettySize=auto;html=1;" edge="1" parent="1" source="BLV9zEJ2628pvFy6-XPy-4" target="BLV9zEJ2628pvFy6-XPy-6">
          <mxGeometry relative="1" as="geometry" />
        </mxCell>
        <mxCell id="BLV9zEJ2628pvFy6-XPy-4" value="login" style="rounded=1;whiteSpace=wrap;html=1;strokeWidth=2;" vertex="1" parent="1">
          <mxGeometry x="315" y="160" width="120" height="60" as="geometry" />
        </mxCell>
        <mxCell id="BLV9zEJ2628pvFy6-XPy-9" value="" style="edgeStyle=orthogonalEdgeStyle;rounded=0;orthogonalLoop=1;jettySize=auto;html=1;" edge="1" parent="1" source="BLV9zEJ2628pvFy6-XPy-6" target="BLV9zEJ2628pvFy6-XPy-8">
          <mxGeometry relative="1" as="geometry" />
        </mxCell>
        <mxCell id="BLV9zEJ2628pvFy6-XPy-6" value="email dan &lt;br&gt;password" style="shape=parallelogram;perimeter=parallelogramPerimeter;whiteSpace=wrap;html=1;fixedSize=1;rounded=1;strokeWidth=2;" vertex="1" parent="1">
          <mxGeometry x="315" y="300" width="120" height="60" as="geometry" />
        </mxCell>
        <mxCell id="BLV9zEJ2628pvFy6-XPy-11" value="" style="edgeStyle=orthogonalEdgeStyle;rounded=0;orthogonalLoop=1;jettySize=auto;html=1;" edge="1" parent="1" source="BLV9zEJ2628pvFy6-XPy-8" target="BLV9zEJ2628pvFy6-XPy-10">
          <mxGeometry relative="1" as="geometry" />
        </mxCell>
        <mxCell id="BLV9zEJ2628pvFy6-XPy-26" value="" style="edgeStyle=orthogonalEdgeStyle;rounded=0;orthogonalLoop=1;jettySize=auto;html=1;" edge="1" parent="1" source="BLV9zEJ2628pvFy6-XPy-8" target="BLV9zEJ2628pvFy6-XPy-29">
          <mxGeometry relative="1" as="geometry">
            <mxPoint x="375" y="645" as="targetPoint" />
          </mxGeometry>
        </mxCell>
        <mxCell id="BLV9zEJ2628pvFy6-XPy-8" value="sudah punya&lt;br&gt;&amp;nbsp;akun?" style="rhombus;whiteSpace=wrap;html=1;rounded=1;strokeWidth=2;" vertex="1" parent="1">
          <mxGeometry x="308.75" y="410" width="132.5" height="130" as="geometry" />
        </mxCell>
        <mxCell id="BLV9zEJ2628pvFy6-XPy-10" value="sign up" style="rounded=1;whiteSpace=wrap;html=1;strokeWidth=2;" vertex="1" parent="1">
          <mxGeometry x="527.5" y="445" width="120" height="60" as="geometry" />
        </mxCell>
        <mxCell id="BLV9zEJ2628pvFy6-XPy-20" style="rounded=0;orthogonalLoop=1;jettySize=auto;html=1;edgeStyle=elbowEdgeStyle;entryX=1;entryY=0.5;entryDx=0;entryDy=0;" edge="1" parent="1" source="BLV9zEJ2628pvFy6-XPy-10" target="BLV9zEJ2628pvFy6-XPy-4">
          <mxGeometry relative="1" as="geometry">
            <mxPoint x="460" y="180" as="targetPoint" />
            <Array as="points">
              <mxPoint x="590" y="330" />
            </Array>
          </mxGeometry>
        </mxCell>
        <mxCell id="BLV9zEJ2628pvFy6-XPy-37" value="" style="edgeStyle=orthogonalEdgeStyle;rounded=0;orthogonalLoop=1;jettySize=auto;html=1;" edge="1" parent="1" source="BLV9zEJ2628pvFy6-XPy-29" target="BLV9zEJ2628pvFy6-XPy-36">
          <mxGeometry relative="1" as="geometry" />
        </mxCell>
        <mxCell id="BLV9zEJ2628pvFy6-XPy-29" value="homepage" style="shape=parallelogram;html=1;strokeWidth=2;perimeter=parallelogramPerimeter;whiteSpace=wrap;rounded=1;arcSize=12;size=0.23;" vertex="1" parent="1">
          <mxGeometry x="307.5" y="615" width="135" height="60" as="geometry" />
        </mxCell>
        <mxCell id="BLV9zEJ2628pvFy6-XPy-32" value="output" style="text;html=1;align=center;verticalAlign=middle;resizable=0;points=[];autosize=1;strokeColor=none;fillColor=none;" vertex="1" parent="1">
          <mxGeometry x="390" y="585" width="60" height="30" as="geometry" />
        </mxCell>
        <mxCell id="BLV9zEJ2628pvFy6-XPy-33" value="input" style="text;html=1;align=center;verticalAlign=middle;resizable=0;points=[];autosize=1;strokeColor=none;fillColor=none;" vertex="1" parent="1">
          <mxGeometry x="395" y="268" width="50" height="30" as="geometry" />
        </mxCell>
        <mxCell id="BLV9zEJ2628pvFy6-XPy-34" value="no" style="text;html=1;align=center;verticalAlign=middle;resizable=0;points=[];autosize=1;strokeColor=none;fillColor=none;" vertex="1" parent="1">
          <mxGeometry x="460" y="450" width="40" height="30" as="geometry" />
        </mxCell>
        <mxCell id="BLV9zEJ2628pvFy6-XPy-35" value="yes" style="text;html=1;align=center;verticalAlign=middle;resizable=0;points=[];autosize=1;strokeColor=none;fillColor=none;" vertex="1" parent="1">
          <mxGeometry x="339" y="550" width="40" height="30" as="geometry" />
        </mxCell>
        <mxCell id="BLV9zEJ2628pvFy6-XPy-39" value="" style="edgeStyle=orthogonalEdgeStyle;rounded=0;orthogonalLoop=1;jettySize=auto;html=1;" edge="1" parent="1" source="BLV9zEJ2628pvFy6-XPy-36">
          <mxGeometry relative="1" as="geometry">
            <mxPoint x="530" y="797.5" as="targetPoint" />
          </mxGeometry>
        </mxCell>
        <mxCell id="BLV9zEJ2628pvFy6-XPy-44" value="" style="edgeStyle=orthogonalEdgeStyle;rounded=0;orthogonalLoop=1;jettySize=auto;html=1;" edge="1" parent="1" source="BLV9zEJ2628pvFy6-XPy-36" target="BLV9zEJ2628pvFy6-XPy-43">
          <mxGeometry relative="1" as="geometry" />
        </mxCell>
        <mxCell id="BLV9zEJ2628pvFy6-XPy-36" value="&lt;font style=&quot;font-size: 12px;&quot;&gt;&lt;br&gt;sudah ada money &lt;br&gt;akun untuk di &lt;br&gt;transfer?&lt;/font&gt;" style="rhombus;whiteSpace=wrap;html=1;strokeWidth=2;rounded=1;arcSize=12;" vertex="1" parent="1">
          <mxGeometry x="307.5" y="730" width="135" height="135" as="geometry" />
        </mxCell>
        <mxCell id="BLV9zEJ2628pvFy6-XPy-42" value="" style="edgeStyle=elbowEdgeStyle;rounded=0;orthogonalLoop=1;jettySize=auto;html=1;" edge="1" parent="1" target="BLV9zEJ2628pvFy6-XPy-43">
          <mxGeometry relative="1" as="geometry">
            <mxPoint x="590" y="827.5" as="sourcePoint" />
            <mxPoint x="590" y="1020" as="targetPoint" />
            <Array as="points">
              <mxPoint x="590" y="940" />
            </Array>
          </mxGeometry>
        </mxCell>
        <mxCell id="BLV9zEJ2628pvFy6-XPy-40" value="no" style="text;html=1;align=center;verticalAlign=middle;resizable=0;points=[];autosize=1;strokeColor=none;fillColor=none;" vertex="1" parent="1">
          <mxGeometry x="460" y="774" width="40" height="30" as="geometry" />
        </mxCell>
        <mxCell id="BLV9zEJ2628pvFy6-XPy-43" value="pilih akun untuk transfer" style="rounded=1;whiteSpace=wrap;html=1;strokeWidth=2;arcSize=12;" vertex="1" parent="1">
          <mxGeometry x="315" y="982.5" width="120" height="60" as="geometry" />
        </mxCell>
        <mxCell id="BLV9zEJ2628pvFy6-XPy-45" value="&lt;font style=&quot;font-size: 11px;&quot;&gt;tambahkan money akun&lt;br&gt;untuk di transfer&lt;/font&gt;" style="shape=parallelogram;html=1;strokeWidth=2;perimeter=parallelogramPerimeter;whiteSpace=wrap;rounded=1;arcSize=12;size=0.23;" vertex="1" parent="1">
          <mxGeometry x="511" y="772" width="180" height="60" as="geometry" />
        </mxCell>
      </root>
    </mxGraphModel>
  </diagram>
</mxfile>
